<?xml version="1.0" standalone="no"?>
<!DOCTYPE svg PUBLIC "-//W3C//DTD SVG 20010904//EN"
 "http://www.w3.org/TR/2001/REC-SVG-20010904/DTD/svg10.dtd">
<svg version="1.0" xmlns="http://www.w3.org/2000/svg"
 width="300.000000pt" height="300.000000pt" viewBox="0 0 300.000000 300.000000"
 preserveAspectRatio="xMidYMid meet">
<metadata>
Created by potrace 1.10, written by Peter Selinger 2001-2011
</metadata>
<g transform="translate(0.000000,300.000000) scale(0.100000,-0.100000)"
fill="#000000" stroke="none">
<path d="M1270 2969 c-10 -24 -11 -59 -1 -172 10 -123 15 -145 34 -165 21 -23
26 -24 107 -17 103 8 130 22 130 70 0 43 -29 65 -87 65 -48 0 -48 0 -57 137
-6 97 -16 113 -70 113 -39 0 -45 -3 -56 -31z m95 -134 l10 -130 40 4 c94 8 90
8 90 -24 l0 -30 -90 -6 c-49 -4 -93 -5 -96 -3 -4 2 -9 61 -13 131 -4 71 -10
143 -13 161 -5 33 -5 33 28 30 l34 -3 10 -130z"/>
<path d="M1666 2979 c-25 -37 -20 -74 14 -101 l30 -24 -22 -108 -21 -109 27
-24 c15 -12 35 -23 45 -23 28 0 59 41 71 95 7 28 13 55 14 60 2 6 6 27 11 48
6 31 12 39 37 44 28 6 68 45 68 68 0 38 -98 81 -211 92 -40 4 -49 2 -63 -18z
m139 -33 c59 -13 100 -27 99 -34 -4 -46 -3 -44 -47 -38 l-44 7 -13 -71 c-7
-38 -17 -70 -21 -70 -5 0 -6 -6 -4 -12 3 -7 1 -33 -3 -58 -7 -42 -10 -45 -36
-43 -16 1 -30 4 -32 6 -2 2 7 55 21 117 32 147 32 148 -7 152 -33 3 -46 23
-34 54 7 17 0 18 121 -10z"/>
<path d="M850 2868 c-27 -29 -26 -38 14 -143 56 -148 74 -183 99 -200 22 -14
29 -14 97 9 40 14 83 35 96 47 57 54 3 133 -71 105 -16 -7 -36 -12 -44 -11 -9
0 -30 38 -53 95 -20 52 -45 100 -55 107 -26 19 -60 16 -83 -9z m90 -65 c12
-32 32 -83 43 -113 12 -30 24 -59 28 -63 3 -4 31 3 62 17 47 20 58 22 67 11
25 -30 6 -49 -79 -82 -47 -18 -85 -32 -87 -30 -4 5 -114 289 -114 296 0 10 42
30 51 25 4 -2 17 -30 29 -61z"/>
<path d="M2145 2840 c-29 -11 -45 -33 -109 -142 -72 -124 -77 -146 -39 -186
30 -33 155 -102 183 -102 10 0 29 9 43 20 26 20 108 148 143 223 17 36 17 39
0 71 -12 23 -41 46 -89 74 -84 47 -105 54 -132 42z m151 -96 c30 -19 54 -41
54 -50 0 -12 -74 -139 -90 -154 -3 -3 -14 -23 -25 -44 -26 -51 -46 -64 -77
-48 -86 46 -144 83 -151 99 -6 14 9 48 63 138 38 65 76 122 82 126 13 8 62
-14 144 -67z"/>
<path d="M2122 2653 l-51 -87 50 -28 c46 -27 69 -29 69 -8 0 5 19 40 41 77 23
38 43 71 45 75 4 7 -78 58 -94 58 -5 0 -32 -39 -60 -87z m94 22 c8 -20 -37
-99 -59 -103 -31 -6 -30 26 3 72 32 48 47 56 56 31z"/>
<path d="M581 2714 c-12 -15 -21 -33 -21 -40 0 -12 103 -170 152 -234 18 -23
54 -49 70 -50 14 0 68 53 68 68 0 17 -128 211 -168 255 -34 35 -74 36 -101 1z
m149 -128 c91 -128 91 -129 72 -149 -11 -11 -24 -17 -29 -14 -6 4 -49 63 -97
132 -86 123 -88 127 -70 146 10 11 21 18 25 17 5 -2 49 -61 99 -132z"/>
<path d="M1309 2536 c-112 -17 -200 -46 -318 -105 -267 -135 -460 -361 -551
-648 l-33 -103 -91 0 c-99 0 -139 -13 -144 -46 -6 -38 26 -53 123 -56 82 -3
90 -5 90 -23 0 -18 -7 -20 -88 -21 -69 -1 -92 -5 -107 -19 -25 -23 -25 -37 -1
-59 14 -13 38 -17 100 -17 68 0 82 -3 91 -19 13 -25 -4 -30 -100 -30 -102 0
-139 -31 -90 -75 15 -14 36 -17 102 -16 46 0 88 -2 95 -7 6 -4 21 -45 33 -91
96 -379 372 -671 740 -785 118 -36 187 -47 315 -46 130 0 205 10 304 40 390
116 672 427 765 843 9 36 37 46 132 45 64 0 79 3 97 20 19 19 19 22 4 45 -15
23 -23 25 -106 28 -94 4 -107 9 -98 34 5 12 24 15 90 15 70 0 87 3 105 20 17
17 20 25 12 40 -15 28 -19 29 -115 35 -95 6 -105 9 -105 31 0 11 19 14 93 14
86 0 95 2 116 24 l23 25 -25 25 c-24 24 -32 26 -120 26 -64 0 -98 4 -104 13
-5 6 -19 46 -32 87 -115 370 -433 663 -806 741 -119 25 -288 32 -396 15z m424
-55 c365 -98 653 -378 756 -735 l28 -98 114 1 c112 1 148 -6 135 -28 -10 -16
-186 -15 -187 2 0 10 -2 10 -6 0 -2 -7 -16 -13 -29 -13 -26 0 -28 -8 -17 -73
l6 -38 113 2 c63 1 117 0 120 -4 19 -19 -17 -27 -124 -27 l-117 0 1 -52 2 -53
111 -2 c60 0 115 -4 121 -8 27 -17 -11 -25 -120 -25 l-118 0 -7 -52 c-15 -108
-95 -311 -158 -402 -140 -201 -324 -343 -534 -415 -135 -45 -196 -55 -348 -55
-135 0 -267 19 -318 46 -10 5 -30 12 -44 14 -39 7 -171 77 -248 132 -151 107
-287 276 -359 447 -40 96 -76 229 -72 267 3 23 2 23 -116 23 -72 0 -118 4
-118 10 0 10 37 13 167 14 60 1 63 2 59 24 -3 12 -5 36 -5 54 l-1 32 -112 3
c-78 2 -113 7 -116 16 -3 9 16 12 73 12 58 0 75 -3 69 -12 -5 -10 -4 -10 6 -1
7 6 19 9 26 6 8 -3 14 -1 14 4 0 5 10 9 22 9 19 -1 22 5 25 52 4 49 3 52 -19
53 -13 0 -66 1 -118 2 -77 2 -95 5 -95 17 0 15 1 15 211 19 30 1 32 4 48 69
41 156 99 271 209 411 91 115 312 283 352 267 9 -3 13 -2 10 4 -11 17 159 80
272 100 88 16 349 5 436 -19z"/>
<path d="M1225 2441 c-384 -106 -652 -386 -746 -781 -8 -33 -13 -115 -13 -205
1 -123 5 -165 23 -235 46 -174 128 -328 241 -453 63 -69 209 -183 220 -171 4
5 24 41 45 79 21 39 57 102 81 140 l43 70 -27 19 c-52 37 -160 155 -190 208
-141 246 -117 543 61 759 67 80 114 118 211 169 213 112 461 97 671 -40 36
-23 62 -46 59 -51 -3 -5 1 -9 9 -9 49 0 178 -214 211 -349 19 -80 15 -242 -9
-321 -22 -70 -76 -178 -110 -218 l-26 -31 35 -56 c20 -30 36 -58 36 -60 0 -3
19 -35 43 -72 53 -83 59 -97 44 -112 -20 -20 30 -7 54 15 96 85 211 280 262
447 29 96 31 111 31 267 0 178 -10 242 -60 367 -20 49 -23 67 -14 73 8 5 9 10
2 14 -6 3 -12 1 -14 -6 -3 -7 -15 10 -27 36 -86 178 -253 337 -454 436 -154
75 -230 92 -427 95 -154 3 -172 1 -265 -24z m410 -16 c211 -37 393 -131 534
-274 99 -101 186 -235 231 -356 73 -193 76 -439 8 -645 -40 -124 -134 -285
-202 -349 -26 -25 -27 -25 -45 -5 -11 10 -45 65 -76 122 l-58 102 26 38 c163
235 153 584 -25 813 -43 56 -145 150 -188 174 -47 26 -159 74 -199 85 -197 53
-467 -12 -624 -151 -103 -90 -194 -245 -222 -374 -19 -91 -19 -241 0 -316 37
-141 92 -236 197 -342 37 -37 68 -72 68 -78 0 -17 -114 -211 -128 -216 -24
-10 -155 105 -228 199 -114 147 -182 314 -203 496 -33 303 71 593 291 808 159
156 331 240 568 277 61 10 195 6 275 -8z"/>
<path d="M1355 2065 c-224 -48 -410 -213 -477 -425 -19 -62 -23 -96 -23 -195
1 -104 5 -130 27 -193 45 -125 90 -187 238 -323 16 -15 19 -14 34 19 16 34 16
36 -1 45 -10 5 -45 37 -78 71 -187 190 -216 474 -72 698 44 69 115 141 129
132 6 -4 8 -3 4 4 -9 15 114 82 193 104 81 22 206 23 285 3 142 -37 289 -150
354 -272 40 -75 72 -197 72 -272 -1 -125 -59 -294 -118 -342 -16 -13 -20 -20
-9 -16 13 5 23 -1 35 -23 18 -32 29 -38 29 -17 0 6 12 32 27 56 165 261 109
610 -129 810 -145 120 -345 173 -520 136z"/>
<path d="M1315 1955 c-97 -34 -164 -76 -220 -138 -52 -57 -112 -156 -121 -199
-21 -102 -25 -142 -20 -206 7 -90 44 -186 101 -267 56 -79 145 -151 145 -117
0 5 18 38 39 74 l40 65 -50 52 c-72 75 -92 126 -93 236 -1 83 2 96 32 157 34
69 82 118 150 153 53 26 71 29 167 30 77 0 97 -4 139 -25 69 -35 133 -100 164
-168 23 -49 27 -70 27 -147 0 -78 -4 -97 -28 -146 -15 -31 -47 -75 -72 -98
l-44 -41 36 -60 c19 -33 38 -60 42 -60 4 0 17 19 29 43 12 23 35 66 51 95 l30
53 25 -48 24 -48 31 65 c46 99 63 178 59 281 -2 49 -6 89 -9 89 -3 0 -13 26
-23 57 -24 76 -57 126 -130 198 -102 100 -227 147 -376 143 -55 -1 -106 -9
-145 -23z m320 -34 c265 -94 404 -396 296 -645 -21 -48 -21 -48 -46 -32 -33
22 -55 8 -97 -62 -18 -29 -37 -51 -43 -49 -22 8 -16 40 13 71 130 135 127 364
-5 507 -153 165 -402 167 -552 4 -24 -26 -55 -72 -69 -103 -24 -50 -27 -70
-27 -157 0 -89 3 -106 27 -155 15 -31 43 -74 63 -97 l36 -42 -21 -41 c-23 -46
-39 -50 -73 -18 -194 186 -203 491 -20 689 71 76 153 123 268 153 45 11 191
-2 250 -23z"/>
<path d="M1370 1747 c-46 -17 -60 -26 -104 -65 -79 -70 -116 -216 -81 -321 18
-55 87 -151 108 -151 7 0 21 15 30 33 9 17 21 39 27 47 25 38 100 172 100 179
0 4 6 15 13 25 12 16 23 2 102 -138 l88 -157 33 32 c117 114 126 308 19 427
-65 72 -133 102 -227 102 -40 -1 -89 -7 -108 -13z m233 -50 c130 -77 181 -231
118 -355 -29 -56 -50 -76 -67 -61 -7 6 -35 49 -61 96 -59 105 -104 159 -125
150 -23 -8 -60 -60 -116 -162 -35 -62 -56 -90 -68 -90 -24 0 -75 98 -81 158
-14 121 81 257 201 288 58 15 152 4 199 -24z"/>
<path d="M1450 1280 c0 -5 9 -10 21 -10 18 0 20 -4 15 -26 -4 -15 -3 -23 3
-20 5 4 12 -2 15 -11 2 -10 4 -2 3 17 -2 27 2 35 15 34 10 -1 14 4 11 12 -6
16 -23 19 -23 4 0 -6 -9 -6 -26 0 -32 12 -34 12 -34 0z"/>
<path d="M1355 1191 c-22 -13 -76 -98 -203 -321 -95 -166 -172 -303 -170 -304
10 -8 117 -54 138 -61 14 -4 30 -11 35 -15 6 -5 23 -10 39 -12 27 -3 33 5 130
168 55 93 119 200 140 237 21 37 40 66 41 65 1 -2 21 -38 43 -81 23 -42 44
-78 47 -78 4 0 35 49 69 109 l62 108 -34 55 c-18 30 -36 60 -41 67 -6 10 -13
10 -37 -3 -48 -25 -78 -19 -130 26 -37 32 -82 59 -97 59 -1 0 -15 -8 -32 -19z
m104 -66 c52 -41 77 -49 132 -42 38 5 41 3 66 -35 l27 -40 -27 -52 c-15 -28
-35 -60 -43 -71 -15 -20 -16 -20 -32 3 -9 13 -29 38 -43 55 -25 29 -29 30 -51
19 -25 -14 -46 -46 -193 -296 -82 -140 -88 -148 -113 -143 -43 8 -101 32 -127
53 l-24 19 133 230 c206 354 193 335 224 335 16 0 46 -15 71 -35z"/>
<path d="M1835 1000 c3 -6 1 -10 -5 -10 -6 0 -8 -5 -5 -10 4 -7 12 -7 24 0 22
11 32 4 24 -17 -6 -16 15 -35 29 -27 15 10 8 23 -9 17 -15 -5 -16 -3 -5 8 12
13 18 38 5 26 -3 -4 -11 -3 -17 2 -18 14 -48 22 -41 11z"/>
<path d="M1704 893 c-20 -38 -52 -92 -70 -120 -19 -29 -29 -52 -23 -50 9 1
126 -194 142 -237 4 -11 62 8 154 51 l73 34 -17 25 c-9 14 -24 38 -32 54 -9
15 -52 91 -96 168 -44 78 -83 141 -87 142 -3 0 -23 -30 -44 -67z m86 -72 c22
-33 40 -62 40 -66 0 -3 21 -39 46 -81 25 -41 43 -81 41 -88 -6 -16 -122 -60
-140 -53 -7 3 -37 50 -66 106 l-52 101 41 70 c23 39 43 70 45 70 2 0 22 -27
45 -59z"/>
<path d="M1919 893 c-1 -10 -1 -21 0 -25 0 -4 -5 -5 -13 -2 -12 5 -32 -24 -22
-33 7 -7 46 30 46 44 0 7 5 13 11 13 5 0 7 5 4 10 -10 16 -25 12 -26 -7z"/>
<path d="M1483 841 c-10 -18 -64 -110 -119 -204 -56 -95 -100 -174 -98 -176 1
-2 24 -5 51 -8 26 -2 56 -5 66 -6 13 -2 40 35 103 142 46 79 84 147 84 150 0
4 -15 36 -34 71 l-35 64 -18 -33z m37 -87 c6 -14 -9 -49 -54 -127 -75 -129
-94 -151 -125 -140 -22 9 -21 9 18 71 23 34 50 81 62 105 58 112 83 136 99 91z"/>
<path d="M1926 792 c-10 -17 11 -42 35 -42 11 0 19 6 19 14 0 9 -7 12 -19 9
-13 -3 -20 1 -23 14 -3 13 -6 15 -12 5z"/>
<path d="M1964 732 c4 -7 13 -12 21 -12 20 0 30 -21 14 -31 -11 -6 -11 -11 -1
-21 9 -9 12 -9 12 5 0 9 4 17 8 17 4 0 8 9 8 20 0 12 -7 20 -17 20 -10 0 -25
3 -35 7 -12 4 -15 3 -10 -5z"/>
<path d="M2050 713 c0 -11 -7 -26 -15 -33 -8 -7 -15 -18 -15 -24 0 -6 11 3 24
19 24 29 25 30 40 10 8 -11 18 -17 22 -12 4 4 2 7 -6 7 -10 0 -10 3 1 17 12
14 12 15 -1 11 -8 -3 -23 1 -32 10 -16 14 -18 13 -18 -5z"/>
<path d="M1605 640 c3 -5 -1 -10 -9 -10 -9 0 -16 -4 -16 -10 0 -12 40 -34 48
-26 3 3 0 6 -7 6 -7 0 -9 5 -6 10 4 6 12 7 18 3 7 -3 3 3 -7 15 -20 23 -32 30
-21 12z"/>
<path d="M1510 479 c0 -5 -4 -7 -10 -4 -12 8 -13 -5 -1 -24 8 -12 12 -12 26 2
9 9 13 21 10 27 -8 13 -25 13 -25 -1z"/>
<path d="M2462 2478 c-44 -40 -92 -81 -106 -91 -14 -10 -33 -32 -42 -49 -15
-29 -15 -32 4 -57 25 -34 53 -37 101 -11 l39 22 41 -41 c24 -24 50 -41 64 -41
25 0 120 66 149 103 26 33 22 59 -23 125 -47 72 -92 112 -123 112 -15 0 -53
-27 -104 -72z m177 -29 c34 -38 61 -78 61 -88 0 -20 -110 -121 -132 -121 -21
0 -98 79 -98 100 0 18 -14 10 -57 -32 -42 -41 -43 -41 -63 -23 -27 24 -26 30
13 65 37 34 40 35 61 14 15 -14 16 -14 16 0 0 9 -8 16 -17 16 -18 1 -17 3 96
102 23 21 47 38 51 38 5 0 36 -32 69 -71z"/>
<path d="M2545 2440 c4 -7 -2 -18 -14 -26 -27 -20 -26 -32 7 -71 l28 -33 35
29 34 29 -30 32 c-32 34 -73 62 -60 40z"/>
<path d="M352 2517 c-30 -32 -27 -65 9 -103 47 -49 13 -76 -41 -34 -34 27 -65
25 -89 -6 -39 -50 -31 -64 100 -171 107 -88 145 -108 174 -93 19 10 45 48 45
65 0 3 -16 23 -37 45 -28 32 -33 44 -24 53 9 9 21 7 51 -11 21 -12 48 -22 59
-22 22 0 61 44 61 69 0 18 -59 78 -150 152 -108 89 -123 94 -158 56z m153 -98
c149 -123 139 -111 113 -137 l-23 -21 -44 40 c-43 40 -43 40 -65 21 -11 -11
-31 -25 -43 -31 -34 -18 -28 -35 27 -77 51 -39 58 -58 29 -77 -18 -11 -35 1
-182 122 -77 64 -88 84 -56 104 13 8 26 3 58 -23 22 -18 41 -40 41 -47 0 -8 5
-11 10 -8 6 4 8 10 5 15 -6 10 42 50 61 50 30 0 11 38 -36 74 -27 21 -50 40
-50 42 0 12 26 44 35 44 6 0 60 -41 120 -91z"/>
<path d="M2454 597 c-25 -26 -44 -54 -44 -66 0 -17 -4 -21 -18 -16 -25 7 -71
-30 -89 -73 -9 -22 -19 -32 -28 -28 -8 3 -24 -6 -37 -19 -13 -14 -31 -25 -41
-25 -9 0 -23 -11 -29 -25 -9 -21 -18 -25 -53 -25 -42 0 -66 -15 -98 -61 -12
-16 -19 -19 -33 -11 -24 13 -72 -2 -105 -34 -24 -23 -31 -25 -44 -14 -16 13
-39 2 -58 -28 -7 -10 -12 -9 -29 2 -15 11 -27 12 -45 5 -13 -5 -35 -9 -48 -9
-35 0 -58 -39 -50 -87 12 -73 15 -83 31 -83 16 0 16 32 -2 123 -4 20 -2 27 10
27 10 0 16 -9 16 -25 0 -33 12 -32 33 5 11 18 26 30 39 30 22 0 20 -6 -25 -56
-18 -21 -18 -22 22 -51 38 -28 44 -43 17 -43 -6 0 -23 11 -38 25 -15 14 -29
25 -31 25 -2 0 -4 -13 -3 -30 1 -29 2 -30 54 -30 46 0 52 2 52 20 0 12 -7 32
-16 46 -13 19 -14 30 -6 47 10 21 10 21 16 2 14 -42 42 -89 58 -99 14 -8 22
-6 39 11 20 20 21 26 12 73 -12 62 -1 62 40 2 49 -73 109 -50 90 33 -15 65 -1
75 33 23 38 -56 84 -64 133 -23 36 31 39 60 10 91 -12 13 -16 24 -10 28 5 4
15 -3 21 -14 6 -11 22 -27 35 -36 24 -15 27 -15 80 20 46 31 55 42 55 67 0 29
13 39 25 19 11 -18 33 -11 70 21 44 39 46 70 5 100 -24 19 -47 49 -36 49 2 0
20 -13 41 -30 21 -16 47 -30 59 -29 20 0 96 79 96 100 0 15 -72 89 -102 105
-29 15 -30 14 -74 -29z m102 -29 c55 -52 58 -73 8 -64 -19 4 -43 10 -52 12 -9
3 -1 -8 18 -25 26 -23 31 -34 23 -42 -9 -9 -25 0 -66 37 -76 68 -66 86 31 56
19 -6 32 -7 32 -1 0 5 -4 9 -9 9 -16 0 -61 41 -56 51 11 16 26 10 71 -33z
m-156 -92 c0 -8 -10 -20 -22 -29 -19 -12 -21 -17 -10 -29 11 -11 15 -10 26 5
7 9 18 17 25 17 19 0 12 -29 -11 -41 -19 -11 -20 -12 -4 -21 13 -8 23 -5 41
12 16 15 25 18 30 10 8 -13 -42 -71 -59 -69 -6 1 -31 23 -55 50 l-44 50 33 34
c32 33 50 37 50 11z m-120 -95 c0 -5 16 -31 36 -56 27 -35 33 -50 24 -59 -8
-8 -16 -5 -29 13 -16 20 -21 22 -40 11 -21 -11 -21 -13 -7 -29 19 -21 21 -41
4 -41 -17 1 -91 108 -83 120 10 16 19 12 36 -15 13 -23 17 -24 34 -11 17 13
18 18 8 35 -17 27 -16 41 2 41 8 0 15 -4 15 -9z m-141 -100 c13 -24 4 -32 -25
-25 -32 8 -40 -15 -19 -55 8 -17 17 -31 19 -31 16 0 36 15 36 26 0 8 6 14 14
14 19 0 30 -31 14 -42 -21 -14 -67 -38 -72 -38 -6 0 -66 115 -66 124 0 6 71
45 82 46 4 0 12 -8 17 -19z m-149 -66 c0 -8 -7 -15 -15 -15 -20 0 -19 -16 5
-69 24 -53 24 -51 2 -51 -13 0 -23 14 -33 47 -11 36 -20 48 -35 48 -32 0 -21
27 16 41 47 17 60 17 60 -1z m-149 -77 c15 -56 16 -92 4 -96 -10 -3 -24 36
-39 106 -6 25 -4 32 8 32 9 0 20 -16 27 -42z"/>
<path d="M447 559 c-55 -45 -69 -77 -51 -115 8 -17 28 -38 45 -48 26 -16 35
-16 55 -6 13 7 26 21 30 32 3 10 10 18 15 18 14 0 11 -16 -6 -30 -9 -7 -13
-15 -11 -18 3 -2 1 -13 -4 -23 -29 -52 86 -139 128 -97 9 9 12 5 12 -19 0 -21
7 -37 21 -47 22 -15 38 -11 122 30 29 14 32 12 18 -14 -21 -42 -21 -72 -2 -91
20 -20 20 -20 68 1 26 11 56 28 66 36 20 18 20 23 3 -60 -12 -55 90 -102 135
-62 16 15 19 14 34 -15 15 -29 19 -31 75 -31 l60 0 0 43 c0 23 7 55 15 71 14
26 14 31 0 52 -17 27 -76 41 -108 27 -18 -9 -28 -5 -56 19 -26 23 -41 29 -72
27 -30 -3 -44 2 -66 23 -34 33 -75 49 -93 38 -10 -6 -19 0 -32 20 -20 34 -72
64 -98 57 -13 -3 -20 2 -24 18 -3 13 -22 37 -42 55 -28 24 -44 31 -66 28 -22
-4 -28 -1 -23 10 11 30 -52 101 -90 102 -11 0 -37 -14 -58 -31z m101 -30 c20
-24 22 -32 12 -44 -17 -20 -30 -19 -30 4 0 10 -6 24 -13 30 -10 8 -20 4 -42
-19 -23 -24 -26 -32 -15 -45 7 -8 16 -12 21 -9 5 3 14 2 19 -1 14 -9 -7 -35
-27 -35 -15 0 -62 48 -63 64 0 15 94 94 105 89 5 -2 21 -18 33 -34z m121 -108
c39 -32 39 -34 -27 -111 l-29 -34 -36 29 c-20 17 -36 35 -36 41 -1 15 71 104
84 104 6 0 25 -13 44 -29z m131 -91 c27 -14 38 -25 34 -35 -8 -19 -18 -19 -34
0 -7 8 -19 15 -26 15 -19 0 -18 -26 1 -34 8 -3 15 -12 15 -21 0 -18 -4 -19
-30 -2 -21 12 -32 5 -43 -27 -2 -5 -11 -7 -20 -3 -14 5 -12 14 21 67 20 33 38
60 40 60 1 0 20 -9 42 -20z m130 -70 c22 -11 40 -24 40 -29 0 -18 -15 -20 -37
-6 -23 15 -43 13 -43 -5 0 -5 9 -12 20 -15 22 -7 28 -35 7 -35 -7 0 -18 5 -25
12 -8 8 -14 5 -21 -15 -9 -24 -41 -39 -41 -19 0 8 54 131 58 132 1 0 21 -9 42
-20z m140 -56 c22 -9 40 -23 40 -31 0 -11 -5 -13 -17 -8 -41 17 -53 17 -53 2
0 -9 9 -19 20 -22 11 -3 20 -13 20 -22 0 -10 -5 -13 -17 -8 -31 11 -38 10 -38
-5 0 -8 9 -16 20 -18 28 -5 41 -20 29 -32 -11 -11 -89 13 -88 27 1 14 37 133
40 133 2 0 22 -7 44 -16z m168 -42 c33 -10 27 -27 -10 -27 -37 0 -50 -22 -16
-27 34 -5 30 -34 -4 -30 -20 3 -28 -1 -28 -12 0 -10 9 -16 24 -16 26 0 41 -14
32 -29 -5 -7 -81 4 -94 14 -1 1 2 15 7 31 5 16 12 46 16 67 6 39 18 44 73 29z"/>
<path d="M597 382 c-27 -28 -27 -29 -8 -46 19 -18 21 -17 45 10 47 53 12 87
-37 36z"/>
<path d="M1418 104 c-31 -16 -41 -42 -32 -78 6 -24 11 -26 55 -26 43 0 51 3
61 25 9 19 8 29 -6 49 -24 38 -47 46 -78 30z m42 -28 c0 -8 7 -17 17 -20 14
-6 14 -9 -5 -26 -22 -20 -58 -28 -47 -10 3 5 -1 10 -9 10 -21 0 -20 15 2 39
20 23 42 27 42 7z"/>
</g>
</svg>
